<svg xmlns="http://www.w3.org/2000/svg" xmlns:xlink="http://www.w3.org/1999/xlink" width="100" height="100" viewBox="0 0 100 100"><g><rect width="100%" height="100%" fill="#ffffff"></rect><g transform="translate(50 50) scale(0.69 0.69) rotate(0) translate(-50 -50)" style="fill:#4582ec;"><svg fill="#4582ec" xmlns:x="http://ns.adobe.com/Extensibility/1.0/" xmlns:i="http://ns.adobe.com/AdobeIllustrator/10.0/" xmlns:graph="http://ns.adobe.com/Graphs/1.0/" xmlns="http://www.w3.org/2000/svg" xmlns:xlink="http://www.w3.org/1999/xlink" version="1.1" x="0px" y="0px" viewBox="0 0 100 100" enable-background="new 0 0 100 100" xml:space="preserve"><metadata><sfw xmlns="http://ns.adobe.com/SaveForWeb/1.0/"><slices></slices><sliceSourceBounds width="1449" height="1446.4" y="-1446.7" x="0.5" bottomLeftOrigin="true"></sliceSourceBounds></sfw></metadata><path d="M10.7,87.6h78.5c4,0,7.2-3.2,7.2-7.2V19.5c0-4-3.2-7.2-7.2-7.2H10.7c-4,0-7.2,3.2-7.2,7.2v60.9C3.6,84.4,6.8,87.6,10.7,87.6  z M89.3,82.6H10.7c-1.2,0-2.2-1-2.2-2.2V34.9h82.9v45.5C91.4,81.7,90.5,82.6,89.3,82.6z M10.7,17.4h78.5c1.2,0,2.2,1,2.2,2.2v10.4  H8.6V19.5C8.6,18.3,9.5,17.4,10.7,17.4z M21.9,23.6c0-1.7,1.4-3,3-3s3,1.4,3,3c0,1.7-1.4,3-3,3S21.9,25.3,21.9,23.6z M31.9,23.6  c0-1.7,1.4-3,3-3s3,1.4,3,3c0,1.7-1.4,3-3,3S31.9,25.3,31.9,23.6z M11.9,23.6c0-1.7,1.4-3,3-3c1.7,0,3,1.4,3,3c0,1.7-1.4,3-3,3  C13.3,26.7,11.9,25.3,11.9,23.6z M85.4,74.7c0,1.4-1.1,2.5-2.5,2.5H17.1c-1.4,0-2.5-1.1-2.5-2.5s1.1-2.5,2.5-2.5h65.8  C84.3,72.2,85.4,73.4,85.4,74.7z M85.4,64.2c0,1.4-1.1,2.5-2.5,2.5H34.4c-1.4,0-2.5-1.1-2.5-2.5s1.1-2.5,2.5-2.5h48.5  C84.3,61.7,85.4,62.8,85.4,64.2z M85.4,53.7c0,1.4-1.1,2.5-2.5,2.5H17.1c-1.4,0-2.5-1.1-2.5-2.5s1.1-2.5,2.5-2.5h65.8  C84.3,51.2,85.4,52.3,85.4,53.7z M85.4,43.1c0,1.4-1.1,2.5-2.5,2.5H50c-1.4,0-2.5-1.1-2.5-2.5s1.1-2.5,2.5-2.5h32.9  C84.3,40.6,85.4,41.7,85.4,43.1z"></path></svg></g></g></svg>