<svg xmlns="http://www.w3.org/2000/svg" xmlns:xlink="http://www.w3.org/1999/xlink" width="100" height="100" viewBox="0 0 100 100"><g><rect width="100%" height="100%" fill="#ffffff"></rect><g transform="translate(50 50) scale(0.69 0.69) rotate(0) translate(-50 -50)" style="fill:#4582ec;"><svg fill="#4582ec" xmlns="http://www.w3.org/2000/svg" xmlns:xlink="http://www.w3.org/1999/xlink" version="1.1" x="0px" y="0px" viewBox="0 0 100 100" style="enable-background:new 0 0 100 100;" xml:space="preserve"><symbol viewBox="-26.684 -17.288 43.333 36.197"><path style="" d="M2.649,9.742c0-4.234-3.432-7.667-7.667-7.667   s-7.667,3.432-7.667,7.667s3.432,7.667,7.667,7.667S2.649,13.976,2.649,9.742z" fill="none" stroke="#4582ec" stroke-width="3" stroke-miterlimit="10"></path><path style="" d="   M-20.851-15.258l3.474,9.888c0.515,1.465,1.898,2.445,3.451,2.445H4.203c1.563,0,2.953-0.993,3.46-2.471l3.153-9.195" fill="none" stroke="#4582ec" stroke-width="3" stroke-linecap="round" stroke-linejoin="round" stroke-miterlimit="10"></path><g><line style="" x1="-12.351" y1="-10.925" x2="-13.685" y2="-15.258" fill="none" stroke="#4582ec" stroke-width="3" stroke-linecap="round" stroke-linejoin="round" stroke-miterlimit="10"></line><line style="" x1="2.315" y1="-10.925" x2="3.649" y2="-15.258" fill="none" stroke="#4582ec" stroke-width="3" stroke-linecap="round" stroke-linejoin="round" stroke-miterlimit="10"></line></g><polygon style="" points="16.649,-15.061 -26.685,-15.061 -26.685,-17.288 16.649,-17.288  " fill="#4582ec"></polygon></symbol><g style="" display="none"><rect x="-257" y="-377" style="" width="1222" height="1226" display="inline" fill="#4582ec" stroke="#4582ec" stroke-width="3" stroke-miterlimit="3"></rect></g><g><path d="M35.524,47.964l-0.597-0.118l-11.316,7.016l3.467-9.928l-1.05-0.653c-6.24-3.882-9.818-9.694-9.818-15.947   c0-11.163,11.4-20.244,25.413-20.244c9.703,0,18.15,4.356,22.43,10.741c1.3,0.053,2.573,0.188,3.814,0.4   C63.527,10.875,53.398,5,41.624,5C25.907,5,13.12,15.467,13.12,28.334c0,6.98,3.713,13.441,10.234,17.892l-5.542,15.868   l17.717-10.985c2.06,0.371,4.107,0.559,6.095,0.559c0.436,0,0.87-0.011,1.302-0.027c-0.877-0.967-1.649-2.002-2.312-3.089   C38.948,48.494,37.242,48.303,35.524,47.964z"></path><path d="M62.822,23.056c-11.192,0-20.296,7.492-20.296,16.701s9.105,16.701,20.296,16.701c2.092,0,4.18-0.274,6.216-0.814   l15.071,6.606l-6.164-11.348c3.347-3.063,5.174-6.978,5.174-11.145C83.119,30.548,74.013,23.056,62.822,23.056z M77.087,55.797   l-7.825-3.43l-0.538,0.156c-1.928,0.56-3.913,0.844-5.902,0.844c-9.488,0-17.206-6.106-17.206-13.611s7.719-13.611,17.206-13.611   s17.207,6.106,17.207,13.611c0,3.602-1.777,7.003-5.002,9.576l-1.012,0.808L77.087,55.797z"></path><circle cx="53.065" cy="40.341" r="2.282"></circle><circle cx="62.822" cy="40.341" r="2.282"></circle><circle cx="72.579" cy="40.341" r="2.282"></circle><path d="M85.26,68.078h-1.237c-2.775,0-5.046,2.271-5.046,5.046v2.506c0,2.775,2.271,5.046,5.046,5.046h1.237   c2.775,0,5.046-2.271,5.046-5.046v-2.506C90.306,70.348,88.035,68.078,85.26,68.078z M87.215,75.629   c0,1.06-0.895,1.955-1.955,1.955h-1.237c-1.06,0-1.955-0.895-1.955-1.955v-2.506c0-1.06,0.895-1.955,1.955-1.955h1.237   c1.06,0,1.955,0.895,1.955,1.955V75.629z"></path><path d="M81.86,83.22c-3.606,0-6.557,2.951-6.557,6.557V95h18.675v-5.224c0-3.606-2.951-6.557-6.557-6.557H81.86z M90.889,89.776   v2.133H78.394v-2.133c0-1.911,1.555-3.466,3.466-3.466h5.562C89.334,86.31,90.889,87.865,90.889,89.776z"></path><path d="M9.694,73.123v2.506c0,2.775,2.271,5.046,5.046,5.046h1.237c2.775,0,5.046-2.271,5.046-5.046v-2.506   c0-2.775-2.271-5.046-5.046-5.046H14.74C11.965,68.078,9.694,70.348,9.694,73.123z M12.785,73.123c0-1.06,0.895-1.955,1.955-1.955   h1.237c1.06,0,1.955,0.895,1.955,1.955v2.506c0,1.06-0.895,1.955-1.955,1.955H14.74c-1.06,0-1.955-0.895-1.955-1.955V73.123z"></path><path d="M6.021,89.776V95h18.675v-5.224c0-3.606-2.951-6.557-6.557-6.557h-5.562C8.971,83.22,6.021,86.17,6.021,89.776z    M9.111,89.776c0-1.911,1.555-3.466,3.466-3.466h5.562c1.911,0,3.466,1.555,3.466,3.466v2.133H9.111V89.776z"></path></g></svg></g></g></svg>